<svg width="60" height="60" viewBox="0 0 60 60" fill="none" xmlns="http://www.w3.org/2000/svg">
<path fill-rule="evenodd" clip-rule="evenodd" d="M24.6915 38.0155C15.0815 38.0155 6.87402 39.468 6.87402 45.288C6.87402 51.108 15.0315 52.613 24.6915 52.613C34.304 52.613 42.509 51.158 42.509 45.3405C42.509 39.523 34.354 38.0155 24.6915 38.0155Z" stroke="#03223D" stroke-width="3" stroke-linecap="round" stroke-linejoin="round"/>
<path fill-rule="evenodd" clip-rule="evenodd" d="M24.6916 29.7148C30.9991 29.7148 36.1116 24.6023 36.1116 18.2948C36.1116 11.9873 30.9991 6.87476 24.6916 6.87476C18.3866 6.87476 13.274 11.9873 13.274 18.2948C13.2516 24.5798 18.3266 29.6923 24.6141 29.7148H24.6916Z" stroke="#03223D" stroke-width="3" stroke-linecap="round" stroke-linejoin="round"/>
<path d="M48.0093 21.6728V31.6978" stroke="#03223D" stroke-width="3" stroke-linecap="round" stroke-linejoin="round"/>
<path d="M53.124 26.685H42.899" stroke="#03223D" stroke-width="3" stroke-linecap="round" stroke-linejoin="round"/>
</svg>
