<svg xmlns="http://www.w3.org/2000/svg" viewBox="0 0 167.35 48"><defs><style>.cls-1{fill:#0b77d6;}.cls-2{fill:#ffb951;}.cls-3{fill:#03223d;}</style></defs><title>Asset 2</title><g id="Layer_2" data-name="Layer 2"><g id="Layer_1-2" data-name="Layer 1"><path class="cls-1" d="M12.54,0H25.08a0,0,0,0,1,0,0V25.08a0,0,0,0,1,0,0H12.54A12.54,12.54,0,0,1,0,12.54v0A12.54,12.54,0,0,1,12.54,0Z" transform="translate(12.54 -5.19) rotate(45)"/><path class="cls-2" d="M48,0h0A12.54,12.54,0,0,1,60.54,12.54V25.08a0,0,0,0,1,0,0H35.46a0,0,0,0,1,0,0V12.54A12.54,12.54,0,0,1,48,0Z" transform="translate(22.92 -30.27) rotate(45)"/><rect class="cls-1" x="17.73" y="17.73" width="25.08" height="25.08" transform="translate(30.27 -12.54) rotate(45)"/><path class="cls-3" d="M83.7,9.29a7.2,7.2,0,0,1,3,2.85,8.53,8.53,0,0,1,1.06,4.31,8.36,8.36,0,0,1-1.06,4.28,7.22,7.22,0,0,1-3,2.83,9.7,9.7,0,0,1-4.51,1H73.5V8.29h5.69A9.7,9.7,0,0,1,83.7,9.29ZM83,20.39a5.34,5.34,0,0,0,1.4-3.94,5.47,5.47,0,0,0-1.4-4,5.32,5.32,0,0,0-4-1.43h-2.3V21.79h2.3A5.38,5.38,0,0,0,83,20.39Z"/><path class="cls-3" d="M90.44,9.56a1.83,1.83,0,0,1-.57-1.37,1.8,1.8,0,0,1,.57-1.36,2.15,2.15,0,0,1,2.87,0,1.8,1.8,0,0,1,.57,1.36,1.83,1.83,0,0,1-.57,1.37,2.18,2.18,0,0,1-2.87,0Zm3,2.08V24.56H90.22V11.64Z"/><path class="cls-3" d="M104.31,12A4.63,4.63,0,0,1,106,13.49V11.64h3.29v13a7,7,0,0,1-.72,3.2,5.38,5.38,0,0,1-2.17,2.24,7,7,0,0,1-3.5.83,7.5,7.5,0,0,1-4.51-1.28,4.79,4.79,0,0,1-2-3.5h3.25a2.43,2.43,0,0,0,1.1,1.41,3.88,3.88,0,0,0,2.07.53,3.19,3.19,0,0,0,2.31-.86,3.39,3.39,0,0,0,.88-2.57v-2a5,5,0,0,1-1.73,1.52,5.25,5.25,0,0,1-2.53.6,5.56,5.56,0,0,1-3-.84,5.82,5.82,0,0,1-2.13-2.36,7.62,7.62,0,0,1-.78-3.51,7.5,7.5,0,0,1,.78-3.48,5.61,5.61,0,0,1,5.12-3.15A5.32,5.32,0,0,1,104.31,12Zm1.26,4a3.37,3.37,0,0,0-3-1.76A3.32,3.32,0,0,0,99.68,16a4.05,4.05,0,0,0-.48,2,4.21,4.21,0,0,0,.48,2,3.47,3.47,0,0,0,1.26,1.34,3.19,3.19,0,0,0,1.67.47,3.42,3.42,0,0,0,1.7-.46,3.25,3.25,0,0,0,1.26-1.31,4.16,4.16,0,0,0,.46-2A4.21,4.21,0,0,0,105.57,16.06Z"/><path class="cls-3" d="M112.74,9.56a1.83,1.83,0,0,1-.57-1.37,1.8,1.8,0,0,1,.57-1.36,2.15,2.15,0,0,1,2.87,0,1.8,1.8,0,0,1,.57,1.36,1.83,1.83,0,0,1-.57,1.37,2.18,2.18,0,0,1-2.87,0Zm3,2.08V24.56h-3.26V11.64Z"/><path class="cls-3" d="M136.75,8.29V24.56h-3.27V14l-4.36,10.58h-2.47L122.27,14V24.56H119V8.29h3.71l5.18,12.1,5.17-12.1Z"/><path class="cls-3" d="M151.88,19.08h-9.44a3.21,3.21,0,0,0,1,2.2,3,3,0,0,0,2.12.79,2.67,2.67,0,0,0,2.59-1.56h3.52a5.86,5.86,0,0,1-2.15,3.06,6.24,6.24,0,0,1-3.89,1.2,6.79,6.79,0,0,1-3.35-.82A6,6,0,0,1,140,21.6a7.18,7.18,0,0,1-.82-3.5,7.37,7.37,0,0,1,.81-3.52,5.71,5.71,0,0,1,2.29-2.33,6.87,6.87,0,0,1,3.38-.82,6.77,6.77,0,0,1,3.3.8,5.56,5.56,0,0,1,2.26,2.25,6.74,6.74,0,0,1,.81,3.34A6.85,6.85,0,0,1,151.88,19.08Zm-3.28-2.19a2.62,2.62,0,0,0-.91-2,3.27,3.27,0,0,0-2.17-.75,3,3,0,0,0-2,.73,3.22,3.22,0,0,0-1,2Z"/><path class="cls-3" d="M154.3,14.58a5.67,5.67,0,0,1,2.13-2.33,5.76,5.76,0,0,1,3-.82,5.55,5.55,0,0,1,2.4.55,4.83,4.83,0,0,1,1.82,1.46V7.31H167V24.56h-3.31V22.65a4.38,4.38,0,0,1-1.7,1.54,5.32,5.32,0,0,1-2.54.58,5.56,5.56,0,0,1-3-.84,5.82,5.82,0,0,1-2.13-2.36,7.62,7.62,0,0,1-.78-3.51A7.5,7.5,0,0,1,154.3,14.58Zm8.92,1.48a3.37,3.37,0,0,0-3-1.76A3.32,3.32,0,0,0,157.33,16a4.05,4.05,0,0,0-.48,2,4.21,4.21,0,0,0,.48,2,3.47,3.47,0,0,0,1.26,1.34,3.22,3.22,0,0,0,1.67.47,3.42,3.42,0,0,0,1.7-.46,3.25,3.25,0,0,0,1.26-1.31,4.16,4.16,0,0,0,.46-2A4.21,4.21,0,0,0,163.22,16.06Z"/><path class="cls-3" d="M73.05,38.08A3.88,3.88,0,0,1,76.53,36a4.2,4.2,0,0,1,2.41.67,3.85,3.85,0,0,1,1.44,1.88h-.62a3.08,3.08,0,0,0-1.19-1.51,3.6,3.6,0,0,0-2-.56,3.37,3.37,0,0,0-1.75.46,3.19,3.19,0,0,0-1.24,1.33,4.3,4.3,0,0,0-.46,2,4.25,4.25,0,0,0,.46,2,3.23,3.23,0,0,0,1.24,1.32,3.37,3.37,0,0,0,1.75.46,3.59,3.59,0,0,0,2-.55A3.12,3.12,0,0,0,79.76,42h.62a3.87,3.87,0,0,1-1.44,1.87,4.12,4.12,0,0,1-2.41.67,3.85,3.85,0,0,1-3.48-2.06,4.66,4.66,0,0,1-.51-2.2A4.72,4.72,0,0,1,73.05,38.08Z"/><path class="cls-3" d="M93.5,36.55v3.5h3.35v.45H93.5V44h3.7v.46H93V36.1H97.2v.45Z"/><path class="cls-3" d="M115.73,44.48h-.54L110.27,37v7.5h-.54V36.11h.54l4.92,7.47V36.11h.54Z"/><path class="cls-3" d="M133.23,36.1v.45h-2.38v7.93h-.54V36.55h-2.39V36.1Z"/><path class="cls-3" d="M146,36.55v3.5h3.35v.45H146V44h3.7v.46h-4.23V36.1h4.23v.45Z"/><path class="cls-3" d="M166.71,44.48l-2.15-3.57h-1.84v3.57h-.53V36.1h2.3a3,3,0,0,1,2.09.65,2.28,2.28,0,0,1,.7,1.75,2.36,2.36,0,0,1-.54,1.59,2.45,2.45,0,0,1-1.58.77l2.19,3.62Zm-4-4h1.79a2.31,2.31,0,0,0,1.66-.53,1.9,1.9,0,0,0,.55-1.42c0-1.28-.74-1.93-2.23-1.93h-1.77Z"/></g></g></svg>